Coordinates
version=1
nRows=29
nColumns=24
inDegrees=yes

Units are S.I. units (second, meters, Newtons, ...)
Angles are in degrees.

endheader
time	pelvis_tilt	pelvis_list	pelvis_rotation	pelvis_tx	pelvis_ty	pelvis_tz	hip_flexion_r	hip_adduction_r	hip_rotation_r	knee_angle_r	ankle_angle_r	subtalar_angle_r	mtp_angle_r	hip_flexion_l	hip_adduction_l	hip_rotation_l	knee_angle_l	ankle_angle_l	subtalar_angle_l	mtp_angle_l	lumbar_extension	lumbar_bending	lumbar_rotation
      5.81000000	      4.74806283	     -1.02333484	     -6.74418040	     -2.42984308	      0.88060695	      0.26848650	    -17.23313866	      3.61804855	     11.74549917	    -15.53897853	     16.49088120	      5.50548863	      0.00000000	     13.98886843	      1.04825303	     -4.43092684	     -0.32660816	      2.74201157	     -1.47468713	      0.00000000	    -23.81013686	     -1.06959505	      0.18303851
      5.82000000	      4.94027134	     -0.66400852	     -6.60024714	     -2.41718721	      0.88039107	      0.26749818	    -17.39654423	      3.14385863	     10.74372320	    -17.10089246	     15.93147323	      6.57750484	      0.00000000	     13.88926492	      1.65632715	     -4.30661158	     -1.67836957	      2.30149799	     -2.86774454	      0.00000000	    -23.72894862	     -1.54731700	      0.02902563
      5.83000000	      5.16987378	     -0.35480544	     -6.25852011	     -2.40450105	      0.88040096	      0.26611948	    -17.44975064	      2.73362379	      9.24591009	    -18.90176448	     15.01118333	      7.81969529	      0.00000000	     13.73627768	      2.25932199	     -3.07535387	     -3.11179196	      1.35665722	     -5.34873787	      0.00000000	    -23.70646602	     -1.87121773	     -0.31018430
      5.84000000	      5.36411157	      0.07769582	     -5.90260619	     -2.39169428	      0.88061412	      0.26475080	    -17.30859358	      2.18830007	      7.70491757	    -20.93411266	     13.78219621	      8.97507029	      0.00000000	     13.66038517	      2.99575280	     -1.67073434	     -4.69145731	      0.25054004	     -7.82262782	      0.00000000	    -23.60330325	     -2.36100848	     -0.65644104
      5.85000000	      5.57386053	      0.53004755	     -5.56174512	     -2.37895368	      0.88106632	      0.26329663	    -16.95140425	      1.55524872	      5.95312000	    -23.30746009	     12.23765629	     10.25589423	      0.00000000	     13.62027873	      3.76693286	     -0.40046346	     -6.41913431	     -0.59214246	     -9.72155397	      0.00000000	    -23.53534969	     -2.86396506	     -0.99383805
      5.86000000	      5.78447020	      0.97748894	     -5.26556648	     -2.36636256	      0.88170124	      0.26181124	    -16.37130350	      0.86138435	      4.23699562	    -25.98703405	     10.32751663	     11.46429923	      0.00000000	     13.59768293	      4.53665562	      0.72438389	     -8.21664882	     -1.11210611	    -11.08823530	      0.00000000	    -23.50579571	     -3.35529070	     -1.27046562
      5.87000000	      5.97127739	      1.38920174	     -5.01218984	     -2.35399304	      0.88242080	      0.26031535	    -15.55129618	      0.15558911	      2.68829384	    -28.93449714	      8.05032705	     12.45587725	      0.00000000	     13.58449676	      5.26675654	      1.72771381	    -10.00827517	     -1.27937630	    -12.01385379	      0.00000000	    -23.50174922	     -3.79222859	     -1.48955109
      5.88000000	      6.20784781	      1.83906306	     -4.87005202	     -2.34181780	      0.88322443	      0.25899018	    -14.56732180	     -0.65774214	      1.35042886	    -32.13269196	      5.56122031	     13.23893690	      0.00000000	     13.47632195	      6.00169638	      2.23119621	    -11.71987967	     -0.95380580	    -12.26332804	      0.00000000	    -23.59375762	     -4.31074633	     -1.66089138
      5.89000000	      6.25120080	      2.25418871	     -4.73489529	     -2.32989004	      0.88370607	      0.25766590	    -13.16954172	     -1.43358714	      0.19090851	    -35.55303465	      2.89345784	     13.57284109	      0.00000000	     13.50373796	      6.67677613	      2.67906599	    -13.29684627	     -0.31338747	    -12.36761661	      0.00000000	    -23.49125025	     -4.74879143	     -1.87292500
      5.90000000	      6.23027828	      2.71337116	     -4.71932758	     -2.31825023	      0.88402898	      0.25661098	    -11.50115080	     -2.26829056	     -0.67294417	    -39.14588501	      0.21655008	     13.48217886	      0.00000000	     13.50986100	      7.33151090	      2.71803283	    -14.66946415	      0.61726084	    -12.12158210	      0.00000000	    -23.35355974	     -5.27885341	     -2.05459724
      5.91000000	      6.17323668	      3.20687474	     -4.82205365	     -2.30693127	      0.88419623	      0.25579244	     -9.61500982	     -3.13710452	     -1.25559730	    -42.84712295	     -2.33562897	     12.92254960	      0.00000000	     13.43604085	      7.96854640	      2.51639827	    -15.77638873	      1.71878918	    -11.77152054	      0.00000000	    -23.21468369	     -5.87269133	     -2.21189448
      5.92000000	      6.10146238	      3.76135285	     -4.99222973	     -2.29585499	      0.88423819	      0.25509391	     -7.58249166	     -4.05824833	     -1.64358107	    -46.57060270	     -4.60795811	     11.94416776	      0.00000000	     13.23712089	      8.64709293	      2.24498674	    -16.57544654	      2.85441266	    -11.47339187	      0.00000000	    -23.07822454	     -6.53885559	     -2.38948844
      5.93000000	      6.01321388	      4.39156227	     -5.19804720	     -2.28494631	      0.88418749	      0.25450015	     -5.44551212	     -5.02446211	     -1.85613862	    -50.23775339	     -6.46494220	     10.58687602	      0.00000000	     12.90963539	      9.39688971	      2.00131326	    -17.06151832	      3.96226019	    -11.22922868	      0.00000000	    -22.91586374	     -7.29314384	     -2.63309046
      5.94000000	      5.97042931	      5.04028270	     -5.42836392	     -2.27426349	      0.88419075	      0.25396893	     -3.30652262	     -5.96294228	     -1.90449321	    -53.76318129	     -7.84406348	      8.83398887	      0.00000000	     12.40323497	     10.17936537	      1.81447260	    -17.26181939	      4.94879380	    -11.15676192	      0.00000000	    -22.83011874	     -8.05549617	     -2.96089997
      5.95000000	      6.08932261	      5.66256898	     -5.62170454	     -2.26377413	      0.88449794	      0.25340723	     -1.36227025	     -6.83253483	     -1.88838921	    -57.02672536	     -8.74032151	      6.74955671	      0.00000000	     11.60199077	     10.97910583	      1.74068998	    -17.21426858	      5.74144874	    -11.27966411	      0.00000000	    -22.97553355	     -8.76291965	     -3.42878656
      5.96000000	      5.98650992	      6.23650353	     -5.83992941	     -2.25329981	      0.88462942	      0.25295026	      0.82529274	     -7.55454009	     -1.67219458	    -60.05548197	     -9.11878586	      4.52912005	      0.00000000	     10.93310540	     11.70826913	      1.78726681	    -16.97757209	      6.51456341	    -11.39201972	      0.00000000	    -22.78717483	     -9.41230722	     -3.78697096
      5.97000000	      6.14088661	      6.65941708	     -5.99261715	     -2.24292250	      0.88537375	      0.25247061	      2.61349298	     -8.07002069	     -1.46541824	    -62.64448336	     -9.17318795	      2.09904187	      0.00000000	      9.87150333	     12.33288752	      1.99791849	    -16.56425756	      7.09889847	    -11.65597162	      0.00000000	    -22.93942922	     -9.87406516	     -4.25088816
      5.98000000	      6.25982786	      6.95683072	     -6.08276991	     -2.23265121	      0.88628473	      0.25195072	      4.35259951	     -8.39516756	     -1.26022451	    -64.85915266	     -8.85968069	     -0.34359098	      0.00000000	      8.79712884	     12.83390681	      2.30683367	    -16.08903611	      7.55601930	    -11.97628326	      0.00000000	    -23.06621771	    -10.16930242	     -4.69305998
      5.99000000	      6.32492052	      7.09710258	     -6.12231272	     -2.22242024	      0.88736279	      0.25135738	      6.05083069	     -8.50649177	     -1.05937986	    -66.67266745	     -8.36860462	     -2.68131235	      0.00000000	      7.71384660	     13.17587637	      2.79989101	    -15.54599376	      7.93869653	    -12.37287755	      0.00000000	    -23.12037341	    -10.25807925	     -5.08531288
      6.00000000	      6.40125611	      7.10935824	     -6.08206838	     -2.21230076	      0.88865521	      0.25074131	      7.61127051	     -8.44637029	     -0.92546503	    -68.06848947	     -7.65882754	     -4.86849081	      0.00000000	      6.61122547	     13.37482461	      3.28074158	    -15.02591439	      8.22975237	    -12.71213530	      0.00000000	    -23.22756226	    -10.19574847	     -5.50046409
      6.01000000	      6.43921434	      7.01244693	     -5.97795574	     -2.20225691	      0.89001821	      0.25004699	      9.11066135	     -8.26138731	     -0.86774983	    -69.08149931	     -6.85658924	     -6.80014755	      0.00000000	      5.53331682	     13.44910331	      3.83136458	    -14.51057028	      8.52507261	    -13.02330854	      0.00000000	    -23.31181073	     -9.98483483	     -5.84238785
      6.02000000	      6.39495456	      6.77556830	     -5.80335585	     -2.19223535	      0.89141814	      0.24928945	     10.56847903	     -7.89772564	     -0.86658772	    -69.69236603	     -5.97789936	     -8.40846966	      0.00000000	      4.51317063	     13.35950100	      4.49919825	    -13.98426700	      8.72913461	    -13.42069587	      0.00000000	    -23.30778299	     -9.58499067	     -6.24863195
      6.03000000	      6.33073319	      6.52787275	     -5.57464052	     -2.18233272	      0.89276221	      0.24847672	     11.96520706	     -7.53525265	     -0.93093560	    -69.97804054	     -4.93156219	     -9.59289826	      0.00000000	      3.52547966	     13.24243188	      5.21469112	    -13.47510838	      8.90716423	    -13.77510225	      0.00000000	    -23.32471843	     -9.16678481	     -6.62045639
      6.04000000	      6.23213527	      6.19575458	     -5.35216973	     -2.17250274	      0.89406347	      0.24776286	     13.30405115	     -7.06304763	     -1.01028632	    -69.91000379	     -3.83062316	    -10.45785592	      0.00000000	      2.58626130	     12.99872768	      5.74782161	    -12.97974301	      9.16273476	    -13.92645433	      0.00000000	    -23.31810480	     -8.66941563	     -6.93861937
      6.05000000	      6.11656315	      5.84435201	     -5.18305373	     -2.16275959	      0.89523233	      0.24716637	     14.59876212	     -6.55368844	     -1.04689575	    -69.54125866	     -2.61735507	    -10.92140065	      0.00000000	      1.67947393	     12.70966294	      6.15615098	    -12.48199425	      9.47934827	    -13.96425751	      0.00000000	    -23.30892526	     -8.17957839	     -7.14655870
      6.06000000	      5.94715637	      5.51618528	     -4.86051357	     -2.15305012	      0.89623099	      0.24638849	     15.82883487	     -6.11109949	     -1.24393993	    -68.85269765	     -1.31607464	    -11.05605011	      0.00000000	      0.82314343	     12.43528348	      6.73833718	    -11.97906089	      9.71316568	    -14.08039567	      0.00000000	    -23.27143400	     -7.66392763	     -7.56524105
      6.07000000	      5.78315487	      5.18191551	     -4.62964358	     -2.14343119	      0.89706949	      0.24580141	     16.99614351	     -5.63534920	     -1.36011158	    -67.87905566	      0.02229557	    -10.91186940	      0.00000000	     -0.02304288	     12.13319832	      7.18669964	    -11.46656939	      9.98826356	    -14.13999739	      0.00000000	    -23.25096846	     -7.18686457	     -7.85034706
      6.08000000	      5.61080342	      4.87343064	     -4.39386339	     -2.13386625	      0.89771500	      0.24526710	     18.08595364	     -5.18854743	     -1.48338009	    -66.61719090	      1.38159932	    -10.53657825	      0.00000000	     -0.84187352	     11.84383287	      7.60247886	    -10.96750733	     10.28724245	    -14.16169542	      0.00000000	    -23.23576595	     -6.74793523	     -8.15082949
      6.09000000	      5.43951756	      4.60595031	     -4.15246289	     -2.12433948	      0.89816290	      0.24479911	     19.08426471	     -4.78550558	     -1.60518448	    -65.07450013	      2.72471197	     -9.97819792	      0.00000000	     -1.64308515	     11.58499190	      8.00735940	    -10.48501468	     10.59255359	    -14.16800690	      0.00000000	    -23.23462974	     -6.36658110	     -8.47736630
